<?xml version="1.0" encoding="utf-8"?>
<!-- Generator: Adobe Illustrator 24.1.2, SVG Export Plug-In . SVG Version: 6.00 Build 0)  -->
<svg version="1.1" id="레이어_1" xmlns="http://www.w3.org/2000/svg" xmlns:xlink="http://www.w3.org/1999/xlink" x="0px"
	 y="0px" viewBox="0 0 100 100" style="enable-background:new 0 0 100 100;" xml:space="preserve">
<style type="text/css">
	.st0{display:none;fill:#FFFFFF;}
	.st1{fill:#FFFFFF;}
	.st2{font-family:'NanumSquareRoundEB';}
	.st3{font-size:15px;}
</style>
<g id="그룹_4960" transform="translate(-989 -1049)">
	<rect id="사각형_1842" x="1005.6" y="1049" class="st0" width="60" height="60"/>
	<path id="패스_741" class="st1" d="M1061.4,1056.7h-32.5v-4.7h-13.3v4.7h-5.1v9.9h5.1v30.1h-5.1v9h29.2v-9h-10.9v-30.1h12.2v5.4
		h6.3v4.6c-1.5,0.4-2.6,1.9-2.6,3.5c0,0.8,0.3,1.7,0.8,2.3c-2.5,1.1-4.2,3.5-4.2,6.3c0,3.8,3,6.8,6.8,6.8s6.8-3.1,6.8-6.8v-0.9h-1.8
		v0.9c0,2.8-2.2,5-5,5s-5-2.2-5-5s2.2-5,5-5h0.9v-0.1c1.7-0.3,2.9-1.8,2.9-3.5s-1.2-3.1-2.8-3.5v-4.6h6.7v-5.4h5.4L1061.4,1056.7z
		 M1050.3,1080.1c0,1-0.8,1.8-1.8,1.8s-1.8-0.8-1.8-1.8s0.8-1.8,1.8-1.8l0,0C1049.5,1078.3,1050.3,1079.1,1050.3,1080.1
		L1050.3,1080.1z M1026.6,1064.6l-9.1,9.1v-18.2L1026.6,1064.6z M1017.5,1077.1l9.1,9.1l-9.1,9.1V1077.1z M1018.3,1075.4l8.8-8.9
		v17.7L1018.3,1075.4z M1027.2,1062.7l-8.8-8.9h8.8V1062.7z M1012.4,1064.8v-6.3h3.3v6.3H1012.4z M1038,1098.6v5.4h-25.6v-5.4H1038
		L1038,1098.6z M1018.6,1096.8l8.6-8.6v8.6H1018.6z M1054.2,1070.2H1043v-3.6h11.2V1070.2z M1059.6,1064.8h-30.7v-6.3h30.7V1064.8z"
		/>
</g>
<text transform="matrix(1 0 0 1 35.1699 87.105)" class="st1 st2 st3">건축</text>
</svg>
