<?xml version="1.0" encoding="utf-8"?>
<!-- Generator: Adobe Illustrator 24.1.2, SVG Export Plug-In . SVG Version: 6.00 Build 0)  -->
<svg version="1.1" id="레이어_1" xmlns="http://www.w3.org/2000/svg" xmlns:xlink="http://www.w3.org/1999/xlink" x="0px"
	 y="0px" viewBox="0 0 100 100" style="enable-background:new 0 0 100 100;" xml:space="preserve">
<style type="text/css">
	.st0{display:none;fill:none;}
	.st1{fill:#FFFFFF;}
	.st2{font-family:'NanumSquareRoundEB';}
	.st3{font-size:15px;}
</style>
<g id="그룹_4963" transform="translate(-1343 -1049)">
	<rect id="사각형_1849" x="1366" y="1049" class="st0" width="60" height="60"/>
	<g id="그룹_4955" transform="translate(-105.957 1569.125)">
		<path id="패스_734" class="st1" d="M1493.2-470.3c0.5,0,0.9-0.4,0.9-0.9l0,0v-38.7c0-0.5-0.4-0.9-0.9-0.9l0,0h-7.6
			c-0.5,0-0.9,0.4-0.9,0.9l0,0v38.7c0,0.5,0.4,0.9,0.9,0.9l0,0H1493.2z M1486.4-509h5.8v36.9h-5.8V-509z"/>
		<path id="패스_735" class="st1" d="M1499-503.6h13c0.5,0,0.9-0.4,0.9-0.9l0,0v-5.4c0-0.5-0.4-0.9-0.9-0.9l0,0h-13
			c-0.5,0-0.9,0.4-0.9,0.9l0,0v5.4C1498.1-504,1498.5-503.6,1499-503.6L1499-503.6z M1499.9-509h11.2v3.6h-11.2V-509z"/>
		<path id="패스_736" class="st1" d="M1498.1-493.7c0,0.5,0.4,0.9,0.9,0.9l0,0h13c0.5,0,0.9-0.4,0.9-0.9l0,0v-5.4
			c0-0.5-0.4-0.9-0.9-0.9l0,0h-13c-0.5,0-0.9,0.4-0.9,0.9l0,0V-493.7z M1499.9-498.2h11.2v3.6h-11.2V-498.2z"/>
		<path id="패스_737" class="st1" d="M1498.1-482.9c0,0.5,0.4,0.9,0.9,0.9l0,0h13c0.5,0,0.9-0.4,0.9-0.9l0,0v-5.4
			c0-0.5-0.4-0.9-0.9-0.9l0,0h-13c-0.5,0-0.9,0.4-0.9,0.9l0,0V-482.9z M1499.9-487.4h11.2v3.6h-11.2V-487.4z"/>
		<path id="패스_738" class="st1" d="M1498.1-472.1c0,0.5,0.4,0.9,0.9,0.9l0,0h13c0.5,0,0.9-0.4,0.9-0.9l0,0v-5.4
			c0-0.5-0.4-0.9-0.9-0.9l0,0h-13c-0.5,0-0.9,0.4-0.9,0.9l0,0V-472.1z M1499.9-476.6h11.2v3.6h-11.2V-476.6z"/>
		<path id="패스_739" class="st1" d="M1526.9-511.7h-6.4c-0.5-3.1-3.2-5.4-6.4-5.4h-30.7c-3.6,0-6.5,2.9-6.5,6.5v39.9
			c0,0.5,0.4,0.9,0.9,0.9l0,0c0.5,0,0.9-0.4,0.9-0.9l0,0v-39.9c0-2.6,2.1-4.7,4.7-4.7h30.7c2.6,0,4.7,2.1,4.7,4.7v39.9
			c0,0.5,0.4,0.9,0.9,0.9l0,0c0.5,0,0.9-0.4,0.9-0.9l0,0v-16.6h6.3c0.5,0,0.9-0.4,0.9-0.9l0,0v-22.5
			C1527.8-511.3,1527.4-511.7,1526.9-511.7z M1526-489.2h-5.4v-20.7h5.4V-489.2z"/>
		<path id="패스_740" class="st1" d="M1526.9-466.3h-49c-0.5,0-0.9,0.4-0.9,0.9l0,0c0,0.5,0.4,0.9,0.9,0.9l0,0h49
			c0.5,0,0.9-0.4,0.9-0.9l0,0C1527.8-465.9,1527.4-466.3,1526.9-466.3L1526.9-466.3z"/>
	</g>
</g>
<text transform="matrix(1 0 0 1 39.33 86.9559)" class="st1 st2 st3">호텔</text>
</svg>
