<?xml version="1.0" encoding="utf-8"?>
<!-- Generator: Adobe Illustrator 24.1.2, SVG Export Plug-In . SVG Version: 6.00 Build 0)  -->
<svg version="1.1" id="레이어_1" xmlns="http://www.w3.org/2000/svg" xmlns:xlink="http://www.w3.org/1999/xlink" x="0px"
	 y="0px" viewBox="0 0 100 100" style="enable-background:new 0 0 100 100;" xml:space="preserve">
<style type="text/css">
	.st0{display:none;fill:#FFFFFF;}
	.st1{fill:#FFFFFF;}
	.st2{font-family:'NanumSquareRoundEB';}
	.st3{font-size:15px;}
</style>
<g id="Group_5398" transform="translate(-517 -1049)">
	<rect id="Rectangle_1848" x="537" y="1049" class="st0" width="60" height="60"/>
	<path id="Path_2466" class="st1" d="M592.6,1077.8h-2.9c-0.5-11.9-10.1-21.5-22-22v-2.9c0-0.5-0.4-1-1-1c-0.5,0-1,0.4-1,1v2.9
		c-11.9,0.5-21.5,10.1-22,22H541c-0.5,0-1,0.4-1,1s0.4,1,1,1h2.9c0.5,11.9,10.1,21.5,22,22v2.9c0,0.5,0.4,1,1,1c0.5,0,1-0.4,1-1
		v-2.9c11.9-0.5,21.5-10.1,22-22h2.9c0.5,0,1-0.4,1-1S593.1,1077.8,592.6,1077.8L592.6,1077.8z M587.8,1077.8H586
		c-0.5-9.9-8.4-17.8-18.3-18.3v-1.8C578.6,1058.3,587.3,1067,587.8,1077.8L587.8,1077.8z M580.8,1075.3c-0.5,0-1,0.4-1,1v1.6h-5.7
		v-0.7c0-0.5-0.4-1-1-1s-1,0.4-1,1l0,0v0.7h-1.9c-0.5,0-1,0.4-1,1c0,0.5,0.4,1,1,1l0,0h1.9v0.7c0,0.5,0.4,1,1,1c0.5,0,1-0.4,1-1
		v-0.7h5.7v1.6c0,0.5,0.4,1,1,1c0.5,0,1-0.4,1-1v-1.6h2.4c-0.5,8.8-7.5,15.9-16.4,16.4v-2.4h1.6c0.5,0,1-0.4,1-1s-0.4-1-1-1h-1.6
		v-5.7h0.7c0.5,0,1-0.4,1-1s-0.4-1-1-1h-0.7v-1.9c0-0.5-0.4-1-1-1c-0.5,0-1,0.4-1,1l0,0v1.9h-0.7c-0.5,0-1,0.4-1,1s0.4,1,1,1h0.7
		v5.7h-1.6c-0.5,0-1,0.4-1,1c0,0.5,0.4,1,1,1h1.6v2.4c-8.8-0.5-15.9-7.5-16.4-16.4h2.4v1.6c0,0.5,0.4,1,1,1s1-0.4,1-1v-1.6h5.7v0.7
		c0,0.5,0.4,1,1,1c0.5,0,1-0.4,1-1v-0.7h1.9c0.5,0,1-0.4,1-1c0-0.5-0.4-1-1-1h-1.9v-0.7c0-0.5-0.4-1-1-1c-0.5,0-1,0.4-1,1v0.7h-5.7
		v-1.6c0-0.5-0.4-1-1-1s-1,0.4-1,1v1.6h-2.4c0.5-8.8,7.5-15.9,16.4-16.4v2.4h-1.6c-0.5,0-1,0.4-1,1s0.4,1,1,1h1.6v5.7h-0.7
		c-0.5,0-1,0.4-1,1c0,0.5,0.4,1,1,1l0,0h0.7v1.9c0,0.5,0.4,1,1,1c0.5,0,1-0.4,1-1v-1.9h0.7c0.5,0,1-0.4,1-1c0-0.5-0.4-1-1-1h-0.7
		v-5.7h1.6c0.5,0,1-0.4,1-1c0-0.5-0.4-1-1-1l0,0h-1.6v-2.4c8.8,0.5,15.9,7.5,16.4,16.4h-2.4v-1.6
		C581.7,1075.7,581.3,1075.3,580.8,1075.3L580.8,1075.3L580.8,1075.3z M565.8,1057.8v1.8c-9.9,0.5-17.8,8.4-18.3,18.3h-1.8
		C546.3,1067,555,1058.3,565.8,1057.8L565.8,1057.8z M545.8,1079.7h1.8c0.5,9.9,8.4,17.8,18.3,18.3v1.8
		C555,1099.3,546.3,1090.6,545.8,1079.7L545.8,1079.7z M567.7,1099.8v-1.8c9.9-0.5,17.8-8.4,18.3-18.3h1.8
		C587.3,1090.6,578.6,1099.3,567.7,1099.8z"/>
</g>
<text transform="matrix(1 0 0 1 35.1699 86.505)" class="st1 st2 st3">군사</text>
</svg>
