<?xml version="1.0" encoding="utf-8"?>
<!-- Generator: Adobe Illustrator 24.1.2, SVG Export Plug-In . SVG Version: 6.00 Build 0)  -->
<svg version="1.1" id="레이어_1" xmlns="http://www.w3.org/2000/svg" xmlns:xlink="http://www.w3.org/1999/xlink" x="0px"
	 y="0px" viewBox="0 0 100 100" style="enable-background:new 0 0 100 100;" xml:space="preserve">
<style type="text/css">
	.st0{display:none;fill:none;}
	.st1{fill:#FFFFFF;}
	.st2{font-family:'NanumSquareRoundEB';}
	.st3{font-size:15px;}
</style>
<g id="그룹_4961" transform="translate(-1107 -1049)">
	<rect id="사각형_1846" x="1127.3" y="1049" class="st0" width="60" height="60"/>
	<g id="그룹_4953" transform="translate(-34.622 1570.14)">
		<path id="패스_727" class="st1" d="M1211.3-491.4h-3.8v-4.6h7.3c0.5,0,0.9-0.4,0.9-0.9l0,0v-6.2h-1.8v5.3h-6.4v-8.5
			c0-1.4-0.5-2.7-1.5-3.6c-1-1-2.3-1.5-3.6-1.5h-20.8c-1.4,0-2.7,0.5-3.6,1.5c-1,1-1.5,2.3-1.5,3.6v8.5h-6.2v-6h-1.8v6.9
			c0,0.5,0.4,0.9,0.9,0.9l0,0h7.1v4.6h-3.7c-3,0-4.9,2.3-4.9,5.8v16.1h5.1c0.4,2.9,2.9,5,5.8,5s5.4-2.1,5.8-5h14.8
			c0.4,2.9,2.9,5,5.8,5s5.4-2.1,5.8-5h5.1v-16.1C1216.3-489.1,1214.3-491.4,1211.3-491.4z M1178.9-466.3c-1.9,0-3.6-1.3-4-3.2h8
			C1182.5-467.6,1180.8-466.3,1178.9-466.3L1178.9-466.3z M1205.3-466.3c-1.9,0-3.6-1.3-4-3.2h8
			C1208.9-467.6,1207.2-466.3,1205.3-466.3L1205.3-466.3z M1214.5-471.3h-44.7v-3.7h44.7V-471.3z M1169.7-476.8v-8.8
			c0-0.9,0.2-4,3.1-4h5.5v-16.8c0-0.9,0.3-1.7,1-2.3c0.6-0.6,1.5-1,2.3-1h20.8c0.9,0,1.7,0.3,2.3,1c0.6,0.6,1,1.5,1,2.3l-0.1,16.8
			h5.6c2.9,0,3.1,3.1,3.1,4v8.8H1169.7z"/>
		<path id="패스_728" class="st1" d="M1201.7-505.5h-19.2c-0.5,0-0.9,0.4-0.9,0.9l0,0v11c0,0.5,0.4,0.9,0.9,0.9l0,0h19.2
			c0.5,0,0.9-0.4,0.9-0.9l0,0v-11C1202.6-505.1,1202.2-505.5,1201.7-505.5z M1200.8-494.6h-17.4v-9.2h17.4V-494.6z"/>
		<path id="패스_729" class="st1" d="M1170.4-511.2c-0.1-2.2,1.7-4,3.9-4.1h35.8c2.2,0.1,4,1.9,3.9,4.1v2.9h1.8v-2.9
			c0.1-3.2-2.5-5.8-5.7-5.9h-35.8c-3.2,0.1-5.8,2.7-5.7,5.9v2.9h1.8L1170.4-511.2z"/>
		<path id="패스_730" class="st1" d="M1176.8-486.8c-2.1-0.1-4,1.5-4.1,3.6s1.5,4,3.6,4.1c0.1,0,0.2,0,0.3,0c2,0,3.7-1.6,3.9-3.6
			l0,0C1180.6-484.8,1179-486.7,1176.8-486.8z M1176.4-480.9c-1.1-0.1-2-1.1-1.9-2.2s1-1.9,2.1-1.9h0.1c1.1,0.1,2,1.1,1.9,2.2
			C1178.6-481.7,1177.6-480.8,1176.4-480.9L1176.4-480.9z"/>
		<path id="패스_731" class="st1" d="M1207.8-486.8c-2.1-0.1-4,1.5-4.1,3.6c-0.1,1,0.3,2,0.9,2.8c0.7,0.8,1.6,1.2,2.7,1.3
			c0.1,0,0.2,0,0.3,0c0.9,0,1.8-0.3,2.5-1c0.8-0.7,1.2-1.6,1.3-2.7C1211.6-484.8,1210-486.7,1207.8-486.8z M1209.6-482.8
			c0,0.5-0.3,1.1-0.7,1.4c-0.4,0.4-0.9,0.5-1.5,0.5c-0.5,0-1.1-0.3-1.4-0.7c-0.4-0.4-0.5-1-0.5-1.5c0.1-1.1,1-1.9,2.1-1.9h0.1
			C1208.9-484.9,1209.7-484,1209.6-482.8L1209.6-482.8z"/>
		<rect id="사각형_1833" x="1185.5" y="-484.1" class="st1" width="13.2" height="1.8"/>
	</g>
</g>
<text transform="matrix(1 0 0 1 36.1324 87.743)" class="st1 st2 st3">운송</text>
</svg>
