<?xml version="1.0" encoding="utf-8"?>
<!-- Generator: Adobe Illustrator 24.1.2, SVG Export Plug-In . SVG Version: 6.00 Build 0)  -->
<svg version="1.1" id="레이어_1" xmlns="http://www.w3.org/2000/svg" xmlns:xlink="http://www.w3.org/1999/xlink" x="0px"
	 y="0px" viewBox="0 0 100 100" style="enable-background:new 0 0 100 100;" xml:space="preserve">
<style type="text/css">
	.st0{display:none;fill:none;}
	.st1{fill:#FFFFFF;}
	.st2{font-family:'NanumSquareRoundEB';}
	.st3{font-size:15px;}
</style>
<g id="그룹_4959" transform="translate(-871 -1049)">
	<rect id="사각형_1843" x="892.1" y="1049" class="st0" width="60" height="60"/>
	<g id="그룹_4952" transform="translate(191.02 1569.299)">
		<path id="패스_722" class="st1" d="M755.1-504.6v37.2c0,1.3-1,2.3-2.3,2.3h-42.6c-1.3,0-2.3-1-2.3-2.3v-37.2h-1.8v37.2
			c0,2.3,1.9,4.1,4.1,4.1h42.6c2.3,0,4.1-1.9,4.1-4.1v-37.2H755.1z"/>
		<path id="패스_723" class="st1" d="M711-470c0.2,0.1,0.3,0.2,0.5,0.2c0.1,0,0.2,0,0.3-0.1c0.1,0,8.2-2.8,19.5,0l0,0h0.1h0.1h0.1
			h0.1c0,0,0,0,0.1,0s8.3-2.8,19.5,0c0.1,0,0.1,0,0.2,0c0.2,0,0.4-0.1,0.6-0.2c0.2-0.2,0.3-0.4,0.3-0.7V-508c0-0.4-0.2-0.7-0.6-0.8
			c-1.1-0.5-2.3-0.9-3.5-1.2v-7.4c0-0.3-0.2-0.6-0.5-0.8s-0.6-0.2-0.9,0l-15.7,9.1c-11.3-4.4-19.9,0-20.3,0.2
			c-0.3,0.2-0.5,0.5-0.5,0.8v37.3C710.6-470.5,710.7-470.2,711-470z M748-481.6c0.2-0.2,0.4-0.4,0.4-0.7v-25.8
			c0.8,0.2,1.5,0.5,2.2,0.7v35.5c-5.1-1.2-10.4-1.4-15.6-0.6L748-481.6z M732.6-507.7l13.9-8.1v33.1l-13.9,9.7V-507.7z M712.4-507.4
			c5.9-2.3,12.4-2.3,18.2,0v35.5c-3.1-0.7-6.3-1.1-9.5-1.1c-2.9,0-5.9,0.3-8.7,1V-507.4z"/>
	</g>
</g>
<text transform="matrix(1 0 0 1 37.4224 88.463)" class="st1 st2 st3">도서</text>
</svg>
