<?xml version="1.0" encoding="utf-8"?>
<!-- Generator: Adobe Illustrator 24.1.2, SVG Export Plug-In . SVG Version: 6.00 Build 0)  -->
<svg version="1.1" id="레이어_1" xmlns="http://www.w3.org/2000/svg" xmlns:xlink="http://www.w3.org/1999/xlink" x="0px"
	 y="0px" viewBox="0 0 100 100" style="enable-background:new 0 0 100 100;" xml:space="preserve">
<style type="text/css">
	.st0{display:none;fill:none;}
	.st1{fill:#FFFFFF;}
	.st2{font-family:'NanumSquareRoundEB';}
	.st3{font-size:15px;}
</style>
<g id="그룹_4956" transform="translate(-517 -1049)">
	<rect id="사각형_1848" x="537" y="1049" class="st0" width="60" height="60"/>
	<g id="그룹_4949" transform="translate(298.405 1569.575)">
		<path id="패스_709" class="st1" d="M243.6-473v9h50.8v-9H243.6z M292.6-465.8h-47.2v-5.4h47.2V-465.8z"/>
		<path id="패스_710" class="st1" d="M257.5-476.2v-18h-9v18H257.5z M250.3-492.4h5.4v14.4h-5.4V-492.4z"/>
		<path id="패스_711" class="st1" d="M289.5-476.2v-18h-9v18H289.5z M282.3-492.4h5.4v14.4h-5.4V-492.4z"/>
		<path id="패스_712" class="st1" d="M273.3-476.2v-18h-9v18H273.3z M266.1-492.4h5.4v14.4h-5.4V-492.4z"/>
		<rect id="사각형_1832" x="243.6" y="-499.6" class="st1" width="50.8" height="1.8"/>
		<path id="패스_713" class="st1" d="M269-510.8c5,0,9,4,9,9h1.8c0-5.6-4.3-10.3-9.9-10.8v-5h-1.8v5c-5.6,0.5-9.9,5.1-9.9,10.8
			h1.8C260-506.8,264-510.8,269-510.8z"/>
	</g>
</g>
<text transform="matrix(1 0 0 1 36.6699 84.3451)" class="st1 st2 st3">국회</text>
</svg>
