<?xml version="1.0" encoding="utf-8"?>
<!-- Generator: Adobe Illustrator 24.1.2, SVG Export Plug-In . SVG Version: 6.00 Build 0)  -->
<svg version="1.1" id="레이어_1" xmlns="http://www.w3.org/2000/svg" xmlns:xlink="http://www.w3.org/1999/xlink" x="0px"
	 y="0px" viewBox="0 0 100 100" style="enable-background:new 0 0 100 100;" xml:space="preserve">
<style type="text/css">
	.st0{display:none;fill:#FFFFFF;stroke:#FFFFFF;stroke-miterlimit:10;}
	.st1{fill:#FFFFFF;stroke:#FFFFFF;stroke-width:2;stroke-linecap:round;stroke-linejoin:round;}
	.st2{fill:none;stroke:#FFFFFF;stroke-width:2;stroke-linecap:round;stroke-linejoin:round;}
	.st3{fill:#FFFFFF;}
	.st4{font-family:'NanumSquareRoundEB';}
	.st5{font-size:15px;}
</style>
<g id="Group_5399" transform="translate(-871 -1049)">
	<rect id="Rectangle_1843" x="890.5" y="1049" class="st0" width="60" height="60"/>
	<g id="Group_5402" transform="translate(558.47 59.5)">
		<g id="Group_5401" transform="translate(318 992.5)">
			<rect id="Rectangle_2474" x="19.5" y="0.5" class="st1" width="49.1" height="34.3"/>
			<rect id="Rectangle_2475" x="24.5" y="5.5" class="st1" width="39.1" height="24.3"/>
			<g id="Group_5400" transform="translate(6.863)">
				<path id="Path_2467" class="st1" d="M19.5,0"/>
				<path id="Path_2468" class="st1" d="M54.8,0"/>
			</g>
			<path id="Rectangle_2476" class="st1" d="M32,17.8h10c2.2,0,4,1.8,4,4v4c0,2.2-1.8,4-4,4H32c-2.2,0-4-1.8-4-4v-4
				C28,19.6,29.8,17.8,32,17.8z"/>
			<line id="Line_467" class="st2" x1="33.9" y1="29.8" x2="33.9" y2="17.8"/>
			<line id="Line_468" class="st2" x1="39" y1="29.8" x2="39" y2="17.8"/>
		</g>
		<line id="Line_469" class="st2" x1="355.6" y1="1027.3" x2="345.2" y2="1045.5"/>
		<line id="Line_470" class="st2" x1="368.7" y1="1027.3" x2="379.1" y2="1045.5"/>
	</g>
</g>
<text transform="matrix(1 0 0 1 35.6119 86.8589)" class="st3 st4 st5">학습</text>
</svg>
